<svg xmlns="http://www.w3.org/2000/svg" width="300" height="54" viewBox="0 0 300 54">
  <defs>
    <style>
      .cls-1 {
        fill: #fff;
        fill-rule: evenodd;
      }
    </style>
  </defs>
  <path id="manaZr_copy_2" data-name="manaZr copy 2" class="cls-1" d="M83.6,39.275V32.914H96.465v6.361H83.6ZM109.328,52V1.109H70.74V13.831H96.465v6.361H70.74V52h38.588Zm19.293,0V13.831h12.863V52h12.862V1.109H115.759V52h12.862ZM173.64,39.275V32.914H186.5v6.361H173.64ZM199.365,52V1.109H160.777V13.831H186.5v6.361H160.777V52h38.588Zm10.405-40.11h25.862l-28.64,29.534V52h48.922V41.04h-30l28.943-29.847V1H209.77V11.888ZM274.277,52V13.831H300V1.109H261.415V52h12.862ZM12.859,52V13.831H25.722V52H38.584V13.831H51.447V52H64.309V1.109H0V52H12.859Z"/>
</svg>
