<svg xmlns="http://www.w3.org/2000/svg" width="1500" height="563" viewBox="0 0 1500 563">
  <defs>
    <style>
      .cls-1 {
        fill: #5585e8;
      }

      .cls-1, .cls-2 {
        fill-opacity: 0.25;
      }

      .cls-1, .cls-2, .cls-3, .cls-4 {
        fill-rule: evenodd;
      }

      .cls-2 {
        fill: #4ca9c8;
      }

      .cls-3 {
        fill: #59d0d5;
        fill-opacity: 0.2;
      }

      .cls-4 {
        fill: #fff;
      }
    </style>
  </defs>
  <path id="Ellipse_1_copy" data-name="Ellipse 1 copy" class="cls-1" d="M1004.17,277.33c74.12,5.177,284.89,255.984,539.58,364.907,123.09,52.64-359.16,35.448-537.5,35.448S32.614,623.822,289.583,581.767C691.413,516,927.22,271.954,1004.17,277.33Z"/>
  <path class="cls-2" d="M366.667,369.078c33.6-.778,245.184,178.273,562.5,243.966C1046.91,637.421,497.092,750.667,318.75,750.667S-195.381,706.578-77.083,640.152C72.048,556.412,289.657,370.86,366.667,369.078Z"/>
  <path id="Ellipse_1_copy_2" data-name="Ellipse 1 copy 2" class="cls-3" d="M1345.83,314.863c72.59-15.889,376.76,256.319,389.59,264.818,111.61,73.944-294.58,93.834-472.92,93.834s-988.576,11.9-733.333-39.619C918.814,555.248,1243.03,337.368,1345.83,314.863Z"/>
  <path id="Ellipse_1_copy_3" data-name="Ellipse 1 copy 3" class="cls-3" d="M-150,314.863c72.583-15.889,376.753,256.319,389.583,264.818C351.2,653.625-54.991,673.515-233.333,673.515S-1180.61,782.449-966.667,633.9C-943.995,618.154-252.8,337.368-150,314.863Z"/>
  <path class="cls-4" d="M631.138,300.8c2.846-8.618,20.053-15.255,20.053-14.3,21.675-8.547,54.46,6.228,58.727,22.882,25.234,1.562,26.332,12.263,28.648,15.732,10.4-3.687,22.05,2.571,24.35,11.441,0,0,14.271,8.064,1.89,17.84-3.089,2.313-13.355,7.948-29.718,3.211-0.386,7.773-15.41,11.05-13.654,9.633-3.46,5.893-12.167,5.933-17.245,2.21,0-5.72,2.5,6.547-28.647,12.872-22.96,1.453-35.272-9.441-35.228-12.674,3.41-1.863-10.282,11.484-27.8,5.523,0,0-10.451-3.314-12.361-7.128-5.779,0-25.977-25.033-.8-44.956C600.8,311.4,610.853,300.146,631.138,300.8Zm190.505,92.961c2.234,0,13.354-.3,12.235,10.4,1.376,4.067-8.051,8.264-15.1,5.327-3.062,3.65-27.59,9.251-31.484-2.919-16.486-1.034-7.332-13.773-7.19-14.243,5.706-3.133,4.736-4.246,14.324-4.291,5.091-9.578,12.035-7.623,17.765-6.352C817.115,383.683,820.482,388.581,821.643,393.761ZM593.73,338.338s1.446,26.924,23.292,28.9c13.772,1.246,9.252-4.782,21.686-5.619,9-.606,17.67,7.225,17.67,7.225l14.457,4.014,12.85-1.606,16.867-7.225L688.5,367.238l-8.834.8-13.654-1.606-9.638-6.422s-5.891-5.073-16.064-4.014a42.144,42.144,0,0,0-16.063,4.817l-16.064-3.211s-4.88-1.534-10.441-12.845S593.73,338.338,593.73,338.338Zm188.745,62.617,6.426,2.408s9.285,10.68,26.5,3.211c11.062-4.8-7.784,6.29-24.1-4.014-4.88-3.082-7-2.408-8.835-2.408C781.164,400.152,782.475,400.955,782.475,400.955Z"/>
  <path class="cls-4" d="M1403.96,227.041c-4.03,4.83-36.31,12.239-41.43-3.862-21.7-1.368-9.65-18.223-9.46-18.845,7.5-4.146,6.23-5.619,18.85-5.677,6.69-12.674,15.83-10.087,23.37-8.405,6.48,2.64,10.91,9.12,12.44,15.974,2.94,0,17.57-.4,16.1,13.767C1425.64,225.373,1413.23,230.927,1403.96,227.041Zm-2.22-4.795c-5.43,1.542-20.34,4.254-33.93-4.378-6.42-4.078-9.21-3.186-11.62-3.186-1.73,0,0,1.062,0,1.062l8.45,3.187s12.22,14.13,34.88,4.248c0.88-.386,1.62-0.691,2.22-0.933C1404.37,221.5,1404.78,221.03,1401.74,222.246Zm-107.91-63.859c-0.48,9.672-17.98,14.081-18.15,13.014,0.06-.093.13-0.173,0.18-0.268a0.372,0.372,0,0,0-.18.268c-4.66,7.516-15.91,7.521-22.51,2.656,0-7.569,3.29,8.663-37.7,17.031-28.93,1.842-45-11.29-46.26-16.165,0.79-.77.82-1.1-0.09-0.6a2.291,2.291,0,0,0,.09.6c-3.11,3.037-18.28,13-36.67,6.7,0,0-13.75-4.385-16.27-9.431-7.6,0-34.18-33.121-1.05-59.481,1.91-15.459,15.13-30.351,41.82-29.485,3.75-11.4,26.39-20.184,26.39-18.923,28.52-11.308,71.66,8.24,77.28,30.276,33.2,2.066,34.65,16.226,37.7,20.815,13.69-4.878,29.01,3.4,32.04,15.138,0,0,18.78,10.669,2.49,23.6C1328.87,157.2,1315.36,164.655,1293.83,158.387Zm-61.3,12.746-11.62,1.062-17.97-2.124-12.68-8.5s-7.76-6.713-21.14-5.311a55.241,55.241,0,0,0-21.14,6.373l-21.14-4.249s-6.42-2.029-13.74-16.994-5.28-8.5-5.28-8.5,1.9,35.623,30.65,38.238c18.12,1.649,12.17-6.327,28.53-7.435,11.84-.8,23.26,9.56,23.26,9.56l19.02,5.31,16.91-2.124,22.19-9.559Z"/>
  <path class="cls-4" d="M63.539,248.557c-3.707,4.409-33.4,11.172-38.112-3.525-19.957-1.249-8.876-16.634-8.7-17.2,6.906-3.784,5.732-5.128,17.339-5.181,6.163-11.568,14.569-9.207,21.5-7.672,5.958,2.409,10.034,8.324,11.44,14.581,2.7,0,16.166-.366,14.811,12.566C83.483,247.035,72.071,252.1,63.539,248.557ZM61.5,244.18c-4.994,1.407-18.713,3.883-31.213-4-5.907-3.723-8.479-2.908-10.695-2.908-1.588,0,0,.969,0,0.969l7.778,2.909s11.239,12.9,32.085,3.878c0.815-.352,1.49-0.631,2.045-0.852C63.915,243.5,64.3,243.07,61.5,244.18Z"/>
  <path id="Shape_5_copy" data-name="Shape 5 copy" class="cls-4" d="M240.539,437.557c-3.707,4.409-33.4,11.172-38.112-3.525-19.957-1.249-8.876-16.634-8.7-17.2,6.906-3.784,5.732-5.128,17.339-5.181,6.163-11.568,14.569-9.207,21.5-7.672,5.958,2.409,10.034,8.324,11.44,14.581,2.7,0,16.165-.366,14.811,12.566C260.483,436.035,249.071,441.1,240.539,437.557ZM238.5,433.18c-4.994,1.407-18.713,3.883-31.213-4-5.907-3.723-8.479-2.908-10.7-2.908-1.588,0,0,.969,0,0.969l7.778,2.909s11.24,12.9,32.085,3.878c0.814-.352,1.49-0.631,2.045-0.852C240.915,432.5,241.3,432.07,238.5,433.18Z"/>
</svg>
